<mxfile host="65bd71144e">
    <diagram id="x-r1B8hrhTemMjnv4sVU" name="Page-1">
        <mxGraphModel dx="-217" dy="1616" grid="1" gridSize="10" guides="1" tooltips="1" connect="1" arrows="1" fold="1" page="1" pageScale="1" pageWidth="827" pageHeight="1169" math="0" shadow="0">
            <root>
                <mxCell id="0"/>
                <mxCell id="1" parent="0"/>
                <mxCell id="LJ0QI57i_qbQqsZ39Isf-7" style="edgeStyle=orthogonalEdgeStyle;rounded=0;orthogonalLoop=1;jettySize=auto;html=1;exitX=1;exitY=1;exitDx=0;exitDy=0;entryX=0;entryY=0.5;entryDx=0;entryDy=0;fontFamily=Verdana;fontSize=10;" parent="1" source="LJ0QI57i_qbQqsZ39Isf-1" target="LJ0QI57i_qbQqsZ39Isf-5" edge="1">
                    <mxGeometry relative="1" as="geometry"/>
                </mxCell>
                <mxCell id="LJ0QI57i_qbQqsZ39Isf-10" style="edgeStyle=orthogonalEdgeStyle;rounded=0;orthogonalLoop=1;jettySize=auto;html=1;exitX=1;exitY=0;exitDx=0;exitDy=0;entryX=0;entryY=0;entryDx=0;entryDy=0;fontFamily=Verdana;fontSize=10;" parent="1" source="LJ0QI57i_qbQqsZ39Isf-1" target="LJ0QI57i_qbQqsZ39Isf-8" edge="1">
                    <mxGeometry relative="1" as="geometry">
                        <Array as="points">
                            <mxPoint x="960" y="-910"/>
                            <mxPoint x="1210" y="-910"/>
                        </Array>
                    </mxGeometry>
                </mxCell>
                <mxCell id="LJ0QI57i_qbQqsZ39Isf-1" value="&lt;div style=&quot;font-size: 10px&quot;&gt;Start&lt;/div&gt;&lt;div style=&quot;font-size: 10px&quot;&gt;(imagine state)&lt;/div&gt;" style="ellipse;whiteSpace=wrap;html=1;aspect=fixed;fontFamily=Verdana;fontSize=10;dashed=1;" parent="1" vertex="1">
                    <mxGeometry x="900" y="-870" width="70" height="70" as="geometry"/>
                </mxCell>
                <mxCell id="EXbpKr9y8Jm7765Equig-21" style="edgeStyle=orthogonalEdgeStyle;rounded=0;orthogonalLoop=1;jettySize=auto;html=1;exitX=0.5;exitY=0;exitDx=0;exitDy=0;entryX=0.5;entryY=1;entryDx=0;entryDy=0;" parent="1" source="LJ0QI57i_qbQqsZ39Isf-5" target="EXbpKr9y8Jm7765Equig-18" edge="1">
                    <mxGeometry relative="1" as="geometry"/>
                </mxCell>
                <mxCell id="EXbpKr9y8Jm7765Equig-58" style="edgeStyle=orthogonalEdgeStyle;rounded=0;orthogonalLoop=1;jettySize=auto;html=1;exitX=1;exitY=0.5;exitDx=0;exitDy=0;entryX=0.5;entryY=1;entryDx=0;entryDy=0;" parent="1" source="LJ0QI57i_qbQqsZ39Isf-5" target="EXbpKr9y8Jm7765Equig-25" edge="1">
                    <mxGeometry relative="1" as="geometry"/>
                </mxCell>
                <mxCell id="LJ0QI57i_qbQqsZ39Isf-5" value="&lt;div style=&quot;font-size: 10px;&quot;&gt;Registration&lt;/div&gt;" style="ellipse;whiteSpace=wrap;html=1;aspect=fixed;fontFamily=Verdana;fontSize=10;fillColor=#60a917;strokeColor=#2D7600;fontColor=#ffffff;" parent="1" vertex="1">
                    <mxGeometry x="1010" y="-470" width="70" height="70" as="geometry"/>
                </mxCell>
                <mxCell id="LJ0QI57i_qbQqsZ39Isf-66" style="edgeStyle=orthogonalEdgeStyle;rounded=0;orthogonalLoop=1;jettySize=auto;html=1;exitX=1;exitY=0.5;exitDx=0;exitDy=0;entryX=0;entryY=0.5;entryDx=0;entryDy=0;fontFamily=Verdana;fontSize=10;" parent="1" source="LJ0QI57i_qbQqsZ39Isf-8" target="LJ0QI57i_qbQqsZ39Isf-25" edge="1">
                    <mxGeometry relative="1" as="geometry"/>
                </mxCell>
                <mxCell id="LJ0QI57i_qbQqsZ39Isf-8" value="&lt;div style=&quot;font-size: 10px;&quot;&gt;Main menu&lt;/div&gt;" style="ellipse;whiteSpace=wrap;html=1;aspect=fixed;fontFamily=Verdana;fontSize=10;fillColor=#60a917;strokeColor=#2D7600;fontColor=#ffffff;" parent="1" vertex="1">
                    <mxGeometry x="1200" y="-870" width="70" height="70" as="geometry"/>
                </mxCell>
                <mxCell id="EXbpKr9y8Jm7765Equig-2" style="edgeStyle=orthogonalEdgeStyle;rounded=0;orthogonalLoop=1;jettySize=auto;html=1;exitX=1;exitY=0.5;exitDx=0;exitDy=0;entryX=0.5;entryY=0;entryDx=0;entryDy=0;" parent="1" source="LJ0QI57i_qbQqsZ39Isf-25" target="LJ0QI57i_qbQqsZ39Isf-8" edge="1">
                    <mxGeometry relative="1" as="geometry">
                        <Array as="points">
                            <mxPoint x="1420" y="-835"/>
                            <mxPoint x="1420" y="-890"/>
                            <mxPoint x="1235" y="-890"/>
                        </Array>
                    </mxGeometry>
                </mxCell>
                <mxCell id="LJ0QI57i_qbQqsZ39Isf-25" value="&lt;div&gt;day_of_week&lt;/div&gt;" style="ellipse;whiteSpace=wrap;html=1;aspect=fixed;fontFamily=Verdana;fontSize=10;fillColor=#60a917;strokeColor=#2D7600;fontColor=#ffffff;" parent="1" vertex="1">
                    <mxGeometry x="1320" y="-870" width="70" height="70" as="geometry"/>
                </mxCell>
                <mxCell id="LYdX4u-15HGzneF6gYN5-18" style="edgeStyle=orthogonalEdgeStyle;rounded=0;jumpStyle=none;jumpSize=6;orthogonalLoop=1;jettySize=auto;html=1;exitX=0;exitY=0.5;exitDx=0;exitDy=0;entryX=1;entryY=1;entryDx=0;entryDy=0;fontFamily=Verdana;fontSize=10;startArrow=classic;startFill=1;sourcePerimeterSpacing=0;targetPerimeterSpacing=0;" parent="1" source="LJ0QI57i_qbQqsZ39Isf-30" target="LJ0QI57i_qbQqsZ39Isf-8" edge="1">
                    <mxGeometry relative="1" as="geometry"/>
                </mxCell>
                <mxCell id="EXbpKr9y8Jm7765Equig-61" style="edgeStyle=orthogonalEdgeStyle;rounded=0;orthogonalLoop=1;jettySize=auto;html=1;exitX=1;exitY=0.5;exitDx=0;exitDy=0;entryX=0.5;entryY=1;entryDx=0;entryDy=0;" parent="1" source="LJ0QI57i_qbQqsZ39Isf-30" target="EXbpKr9y8Jm7765Equig-54" edge="1">
                    <mxGeometry relative="1" as="geometry">
                        <Array as="points">
                            <mxPoint x="1440" y="-675"/>
                            <mxPoint x="1440" y="-530"/>
                            <mxPoint x="1735" y="-530"/>
                        </Array>
                    </mxGeometry>
                </mxCell>
                <mxCell id="3bv1Uwg1ci4Bgwj8NIPb-10" style="edgeStyle=orthogonalEdgeStyle;rounded=0;orthogonalLoop=1;jettySize=auto;html=1;exitX=1;exitY=0.5;exitDx=0;exitDy=0;entryX=0;entryY=0.5;entryDx=0;entryDy=0;" parent="1" source="LJ0QI57i_qbQqsZ39Isf-30" target="EXbpKr9y8Jm7765Equig-45" edge="1">
                    <mxGeometry relative="1" as="geometry"/>
                </mxCell>
                <mxCell id="LJ0QI57i_qbQqsZ39Isf-30" value="&lt;div&gt;other_menu&lt;/div&gt;&lt;div&gt;#1&lt;br&gt;&lt;/div&gt;" style="ellipse;whiteSpace=wrap;html=1;aspect=fixed;fontFamily=Verdana;fontSize=10;fillColor=#60a917;strokeColor=#2D7600;fontColor=#ffffff;" parent="1" vertex="1">
                    <mxGeometry x="1340" y="-710" width="70" height="70" as="geometry"/>
                </mxCell>
                <mxCell id="LYdX4u-15HGzneF6gYN5-48" style="edgeStyle=orthogonalEdgeStyle;rounded=0;jumpStyle=none;jumpSize=6;orthogonalLoop=1;jettySize=auto;html=1;exitX=0.5;exitY=1;exitDx=0;exitDy=0;entryX=0.5;entryY=1;entryDx=0;entryDy=0;fontFamily=Verdana;fontSize=10;startArrow=none;startFill=0;sourcePerimeterSpacing=0;targetPerimeterSpacing=0;" parent="1" source="LYdX4u-15HGzneF6gYN5-6" target="LJ0QI57i_qbQqsZ39Isf-5" edge="1">
                    <mxGeometry relative="1" as="geometry"/>
                </mxCell>
                <mxCell id="3bv1Uwg1ci4Bgwj8NIPb-11" style="edgeStyle=orthogonalEdgeStyle;rounded=0;orthogonalLoop=1;jettySize=auto;html=1;exitX=0;exitY=0.5;exitDx=0;exitDy=0;entryX=0.5;entryY=1;entryDx=0;entryDy=0;startArrow=classic;startFill=1;" parent="1" source="LYdX4u-15HGzneF6gYN5-6" target="LJ0QI57i_qbQqsZ39Isf-8" edge="1">
                    <mxGeometry relative="1" as="geometry"/>
                </mxCell>
                <mxCell id="LYdX4u-15HGzneF6gYN5-6" value="&lt;div&gt;other_menu&lt;/div&gt;&lt;div&gt;#2&lt;br&gt;&lt;/div&gt;" style="ellipse;whiteSpace=wrap;html=1;aspect=fixed;fontFamily=Verdana;fontSize=10;fillColor=#60a917;strokeColor=#2D7600;fontColor=#ffffff;" parent="1" vertex="1">
                    <mxGeometry x="1340" y="-570" width="70" height="70" as="geometry"/>
                </mxCell>
                <mxCell id="LYdX4u-15HGzneF6gYN5-16" style="rounded=0;jumpStyle=none;jumpSize=6;orthogonalLoop=1;jettySize=auto;html=1;exitX=0.5;exitY=1;exitDx=0;exitDy=0;fontFamily=Verdana;fontSize=10;sourcePerimeterSpacing=0;targetPerimeterSpacing=0;edgeStyle=orthogonalEdgeStyle;startArrow=classic;startFill=1;entryX=0.5;entryY=0;entryDx=0;entryDy=0;" parent="1" source="LJ0QI57i_qbQqsZ39Isf-30" target="LYdX4u-15HGzneF6gYN5-6" edge="1">
                    <mxGeometry relative="1" as="geometry">
                        <mxPoint x="1395" y="-430" as="targetPoint"/>
                    </mxGeometry>
                </mxCell>
                <mxCell id="EXbpKr9y8Jm7765Equig-12" style="edgeStyle=orthogonalEdgeStyle;rounded=0;orthogonalLoop=1;jettySize=auto;html=1;exitX=0.5;exitY=0;exitDx=0;exitDy=0;entryX=0.5;entryY=1;entryDx=0;entryDy=0;" parent="1" source="EXbpKr9y8Jm7765Equig-11" target="LJ0QI57i_qbQqsZ39Isf-1" edge="1">
                    <mxGeometry relative="1" as="geometry"/>
                </mxCell>
                <mxCell id="EXbpKr9y8Jm7765Equig-11" value="/start from anywhere move to Start state" style="rounded=1;whiteSpace=wrap;html=1;fillColor=#60a917;strokeColor=#2D7600;fontColor=#ffffff;" parent="1" vertex="1">
                    <mxGeometry x="827" y="-430" width="120" height="60" as="geometry"/>
                </mxCell>
                <mxCell id="EXbpKr9y8Jm7765Equig-41" style="edgeStyle=orthogonalEdgeStyle;rounded=0;orthogonalLoop=1;jettySize=auto;html=1;exitX=0.5;exitY=0;exitDx=0;exitDy=0;entryX=0.5;entryY=1;entryDx=0;entryDy=0;" parent="1" source="EXbpKr9y8Jm7765Equig-18" target="EXbpKr9y8Jm7765Equig-40" edge="1">
                    <mxGeometry relative="1" as="geometry"/>
                </mxCell>
                <mxCell id="EXbpKr9y8Jm7765Equig-18" value="&lt;div&gt;enter teacher's &lt;br&gt;&lt;/div&gt;&lt;div&gt;surname&lt;br&gt;&lt;/div&gt;" style="ellipse;whiteSpace=wrap;html=1;aspect=fixed;fontFamily=Verdana;fontSize=10;fillColor=#60a917;strokeColor=#2D7600;fontColor=#ffffff;" parent="1" vertex="1">
                    <mxGeometry x="1010" y="-600" width="70" height="70" as="geometry"/>
                </mxCell>
                <mxCell id="EXbpKr9y8Jm7765Equig-37" style="edgeStyle=orthogonalEdgeStyle;rounded=0;orthogonalLoop=1;jettySize=auto;html=1;exitX=0.5;exitY=0;exitDx=0;exitDy=0;entryX=0.5;entryY=1;entryDx=0;entryDy=0;" parent="1" source="EXbpKr9y8Jm7765Equig-25" target="EXbpKr9y8Jm7765Equig-26" edge="1">
                    <mxGeometry relative="1" as="geometry"/>
                </mxCell>
                <mxCell id="EXbpKr9y8Jm7765Equig-25" value="digit" style="ellipse;whiteSpace=wrap;html=1;aspect=fixed;fontFamily=Verdana;fontSize=10;fillColor=#60a917;strokeColor=#2D7600;fontColor=#ffffff;" parent="1" vertex="1">
                    <mxGeometry x="1110" y="-560" width="70" height="70" as="geometry"/>
                </mxCell>
                <mxCell id="EXbpKr9y8Jm7765Equig-59" style="edgeStyle=orthogonalEdgeStyle;rounded=0;orthogonalLoop=1;jettySize=auto;html=1;exitX=0.5;exitY=0;exitDx=0;exitDy=0;entryX=0.5;entryY=1;entryDx=0;entryDy=0;" parent="1" source="EXbpKr9y8Jm7765Equig-26" target="EXbpKr9y8Jm7765Equig-29" edge="1">
                    <mxGeometry relative="1" as="geometry"/>
                </mxCell>
                <mxCell id="EXbpKr9y8Jm7765Equig-26" value="letter" style="ellipse;whiteSpace=wrap;html=1;aspect=fixed;fontFamily=Verdana;fontSize=10;fillColor=#60a917;strokeColor=#2D7600;fontColor=#ffffff;" parent="1" vertex="1">
                    <mxGeometry x="1110" y="-670" width="70" height="70" as="geometry"/>
                </mxCell>
                <mxCell id="EXbpKr9y8Jm7765Equig-35" style="edgeStyle=orthogonalEdgeStyle;rounded=0;orthogonalLoop=1;jettySize=auto;html=1;exitX=0.5;exitY=0;exitDx=0;exitDy=0;entryX=0.5;entryY=1;entryDx=0;entryDy=0;" parent="1" target="EXbpKr9y8Jm7765Equig-29" edge="1">
                    <mxGeometry relative="1" as="geometry">
                        <mxPoint x="1144.9999999999998" y="-740" as="sourcePoint"/>
                    </mxGeometry>
                </mxCell>
                <mxCell id="EXbpKr9y8Jm7765Equig-34" style="edgeStyle=orthogonalEdgeStyle;rounded=0;orthogonalLoop=1;jettySize=auto;html=1;exitX=1;exitY=0.5;exitDx=0;exitDy=0;entryX=0;entryY=1;entryDx=0;entryDy=0;" parent="1" source="EXbpKr9y8Jm7765Equig-29" target="LJ0QI57i_qbQqsZ39Isf-8" edge="1">
                    <mxGeometry relative="1" as="geometry"/>
                </mxCell>
                <mxCell id="EXbpKr9y8Jm7765Equig-29" value="subclass" style="ellipse;whiteSpace=wrap;html=1;aspect=fixed;fontFamily=Verdana;fontSize=10;fillColor=#60a917;strokeColor=#2D7600;fontColor=#ffffff;" parent="1" vertex="1">
                    <mxGeometry x="1110" y="-790" width="70" height="70" as="geometry"/>
                </mxCell>
                <mxCell id="EXbpKr9y8Jm7765Equig-43" style="edgeStyle=orthogonalEdgeStyle;rounded=0;orthogonalLoop=1;jettySize=auto;html=1;exitX=0.5;exitY=0;exitDx=0;exitDy=0;entryX=0;entryY=0.5;entryDx=0;entryDy=0;" parent="1" source="EXbpKr9y8Jm7765Equig-40" target="LJ0QI57i_qbQqsZ39Isf-8" edge="1">
                    <mxGeometry relative="1" as="geometry">
                        <Array as="points">
                            <mxPoint x="1045" y="-860"/>
                            <mxPoint x="1200" y="-860"/>
                        </Array>
                    </mxGeometry>
                </mxCell>
                <mxCell id="EXbpKr9y8Jm7765Equig-40" value="&lt;div&gt;choose teacher's &lt;br&gt;&lt;/div&gt;&lt;div&gt;surname&lt;br&gt;&lt;/div&gt;" style="ellipse;whiteSpace=wrap;html=1;aspect=fixed;fontFamily=Verdana;fontSize=10;fillColor=#e3c800;strokeColor=#B09500;fontColor=#000000;" parent="1" vertex="1">
                    <mxGeometry x="1010" y="-770" width="70" height="70" as="geometry"/>
                </mxCell>
                <mxCell id="EXbpKr9y8Jm7765Equig-44" style="edgeStyle=orthogonalEdgeStyle;rounded=0;orthogonalLoop=1;jettySize=auto;html=1;exitX=0.5;exitY=0;exitDx=0;exitDy=0;entryX=0.5;entryY=1;entryDx=0;entryDy=0;" parent="1" source="EXbpKr9y8Jm7765Equig-45" target="EXbpKr9y8Jm7765Equig-47" edge="1">
                    <mxGeometry relative="1" as="geometry"/>
                </mxCell>
                <mxCell id="EXbpKr9y8Jm7765Equig-45" value="digit" style="ellipse;whiteSpace=wrap;html=1;aspect=fixed;fontFamily=Verdana;fontSize=10;fillColor=#60a917;strokeColor=#2D7600;fontColor=#ffffff;" parent="1" vertex="1">
                    <mxGeometry x="1590" y="-710" width="70" height="70" as="geometry"/>
                </mxCell>
                <mxCell id="EXbpKr9y8Jm7765Equig-60" style="edgeStyle=orthogonalEdgeStyle;rounded=0;orthogonalLoop=1;jettySize=auto;html=1;exitX=0.5;exitY=0;exitDx=0;exitDy=0;entryX=0.5;entryY=1;entryDx=0;entryDy=0;" parent="1" source="EXbpKr9y8Jm7765Equig-47" target="EXbpKr9y8Jm7765Equig-50" edge="1">
                    <mxGeometry relative="1" as="geometry"/>
                </mxCell>
                <mxCell id="EXbpKr9y8Jm7765Equig-47" value="letter" style="ellipse;whiteSpace=wrap;html=1;aspect=fixed;fontFamily=Verdana;fontSize=10;fillColor=#60a917;strokeColor=#2D7600;fontColor=#ffffff;" parent="1" vertex="1">
                    <mxGeometry x="1590" y="-840" width="70" height="70" as="geometry"/>
                </mxCell>
                <mxCell id="3bv1Uwg1ci4Bgwj8NIPb-5" style="edgeStyle=orthogonalEdgeStyle;rounded=0;orthogonalLoop=1;jettySize=auto;html=1;exitX=0;exitY=0.5;exitDx=0;exitDy=0;entryX=1;entryY=0.5;entryDx=0;entryDy=0;" parent="1" source="EXbpKr9y8Jm7765Equig-50" target="3bv1Uwg1ci4Bgwj8NIPb-1" edge="1">
                    <mxGeometry relative="1" as="geometry"/>
                </mxCell>
                <mxCell id="3bv1Uwg1ci4Bgwj8NIPb-6" style="edgeStyle=orthogonalEdgeStyle;rounded=0;orthogonalLoop=1;jettySize=auto;html=1;exitX=0.5;exitY=0;exitDx=0;exitDy=0;entryX=0.5;entryY=0;entryDx=0;entryDy=0;" parent="1" source="EXbpKr9y8Jm7765Equig-50" target="LJ0QI57i_qbQqsZ39Isf-8" edge="1">
                    <mxGeometry relative="1" as="geometry"/>
                </mxCell>
                <mxCell id="EXbpKr9y8Jm7765Equig-50" value="subclass" style="ellipse;whiteSpace=wrap;html=1;aspect=fixed;fontFamily=Verdana;fontSize=10;fillColor=#60a917;strokeColor=#2D7600;fontColor=#ffffff;" parent="1" vertex="1">
                    <mxGeometry x="1590" y="-980" width="70" height="70" as="geometry"/>
                </mxCell>
                <mxCell id="EXbpKr9y8Jm7765Equig-53" style="edgeStyle=orthogonalEdgeStyle;rounded=0;orthogonalLoop=1;jettySize=auto;html=1;exitX=0.5;exitY=0;exitDx=0;exitDy=0;entryX=0.5;entryY=1;entryDx=0;entryDy=0;" parent="1" source="EXbpKr9y8Jm7765Equig-54" target="EXbpKr9y8Jm7765Equig-55" edge="1">
                    <mxGeometry relative="1" as="geometry"/>
                </mxCell>
                <mxCell id="EXbpKr9y8Jm7765Equig-54" value="&lt;div&gt;enter teacher's &lt;br&gt;&lt;/div&gt;&lt;div&gt;surname&lt;br&gt;&lt;/div&gt;" style="ellipse;whiteSpace=wrap;html=1;aspect=fixed;fontFamily=Verdana;fontSize=10;fillColor=#60a917;strokeColor=#2D7600;fontColor=#ffffff;" parent="1" vertex="1">
                    <mxGeometry x="1700" y="-710" width="70" height="70" as="geometry"/>
                </mxCell>
                <mxCell id="3bv1Uwg1ci4Bgwj8NIPb-3" style="edgeStyle=orthogonalEdgeStyle;rounded=0;orthogonalLoop=1;jettySize=auto;html=1;exitX=0.5;exitY=0;exitDx=0;exitDy=0;entryX=1;entryY=0.5;entryDx=0;entryDy=0;" parent="1" source="EXbpKr9y8Jm7765Equig-55" target="3bv1Uwg1ci4Bgwj8NIPb-2" edge="1">
                    <mxGeometry relative="1" as="geometry"/>
                </mxCell>
                <mxCell id="3bv1Uwg1ci4Bgwj8NIPb-8" style="edgeStyle=orthogonalEdgeStyle;rounded=0;orthogonalLoop=1;jettySize=auto;html=1;exitX=0.5;exitY=0;exitDx=0;exitDy=0;entryX=0.5;entryY=0;entryDx=0;entryDy=0;" parent="1" source="EXbpKr9y8Jm7765Equig-55" target="LJ0QI57i_qbQqsZ39Isf-8" edge="1">
                    <mxGeometry relative="1" as="geometry">
                        <Array as="points">
                            <mxPoint x="1735" y="-1030"/>
                            <mxPoint x="1235" y="-1030"/>
                        </Array>
                    </mxGeometry>
                </mxCell>
                <mxCell id="EXbpKr9y8Jm7765Equig-55" value="&lt;div&gt;choose teacher's &lt;br&gt;&lt;/div&gt;&lt;div&gt;surname&lt;br&gt;&lt;/div&gt;" style="ellipse;whiteSpace=wrap;html=1;aspect=fixed;fontFamily=Verdana;fontSize=10;fillColor=#60a917;strokeColor=#2D7600;fontColor=#ffffff;" parent="1" vertex="1">
                    <mxGeometry x="1700" y="-980" width="70" height="70" as="geometry"/>
                </mxCell>
                <mxCell id="3bv1Uwg1ci4Bgwj8NIPb-9" style="edgeStyle=orthogonalEdgeStyle;rounded=0;orthogonalLoop=1;jettySize=auto;html=1;exitX=0;exitY=0.5;exitDx=0;exitDy=0;" parent="1" source="3bv1Uwg1ci4Bgwj8NIPb-1" target="LJ0QI57i_qbQqsZ39Isf-8" edge="1">
                    <mxGeometry relative="1" as="geometry"/>
                </mxCell>
                <mxCell id="3bv1Uwg1ci4Bgwj8NIPb-1" value="&lt;div&gt;day_of_week&lt;/div&gt;" style="ellipse;whiteSpace=wrap;html=1;aspect=fixed;fontFamily=Verdana;fontSize=10;fillColor=#60a917;strokeColor=#2D7600;fontColor=#ffffff;" parent="1" vertex="1">
                    <mxGeometry x="1480" y="-980" width="70" height="70" as="geometry"/>
                </mxCell>
                <mxCell id="3bv1Uwg1ci4Bgwj8NIPb-4" style="edgeStyle=orthogonalEdgeStyle;rounded=0;orthogonalLoop=1;jettySize=auto;html=1;exitX=0;exitY=0.5;exitDx=0;exitDy=0;entryX=0.5;entryY=0;entryDx=0;entryDy=0;" parent="1" source="3bv1Uwg1ci4Bgwj8NIPb-2" target="LJ0QI57i_qbQqsZ39Isf-8" edge="1">
                    <mxGeometry relative="1" as="geometry"/>
                </mxCell>
                <mxCell id="3bv1Uwg1ci4Bgwj8NIPb-2" value="&lt;div&gt;day_of_week&lt;/div&gt;" style="ellipse;whiteSpace=wrap;html=1;aspect=fixed;fontFamily=Verdana;fontSize=10;fillColor=#60a917;strokeColor=#2D7600;fontColor=#ffffff;" parent="1" vertex="1">
                    <mxGeometry x="1590" y="-1110" width="70" height="70" as="geometry"/>
                </mxCell>
            </root>
        </mxGraphModel>
    </diagram>
</mxfile>